<?xml version="1.0" encoding="utf-8"?>
<!-- Generator: Adobe Illustrator 25.4.0, SVG Export Plug-In . SVG Version: 6.00 Build 0)  -->
<svg version="1.1" id="Layer_1" xmlns="http://www.w3.org/2000/svg" xmlns:xlink="http://www.w3.org/1999/xlink" x="0px" y="0px"
	 viewBox="0 0 20 20" style="enable-background:new 0 0 20 20;" xml:space="preserve">
<style type="text/css">
	.st0{fill:#795548;}
</style>
<path class="st0" d="M16.5,15.9c0.1-3.7-2.8-6.8-6.5-6.9l0,0l0,0c-3.7,0.1-6.6,3.2-6.5,6.9v3.2c0,0.5,0.4,0.8,0.9,0.9h11.2
	c0.5,0,0.8-0.4,0.9-0.9V15.9z M10,10.8c2.7,0.1,4.8,2.3,4.7,5v2.3H5.3v-2.3C5.2,13.1,7.3,10.9,10,10.8z"/>
<path class="st0" d="M10,7.5c-2.1,0-3.7-1.7-3.7-3.7C6.3,1.7,7.9,0,10,0s3.7,1.7,3.7,3.7C13.7,5.8,12.1,7.5,10,7.5z M10,1.9
	c-1,0-1.8,0.8-1.8,1.8S9,5.6,10,5.6s1.8-0.8,1.8-1.8S11,1.9,10,1.9z"/>
</svg>
